<?xml version="1.0" encoding="UTF-8" standalone="no"?>
<!DOCTYPE svg PUBLIC "-//W3C//DTD SVG 1.1//EN"
 "http://www.w3.org/Graphics/SVG/1.1/DTD/svg11.dtd">
<!-- Generated by graphviz version 2.47.3 (20210619.1520)
 -->
<!-- Title: dependencies Pages: 1 -->
<svg width="588pt" height="247pt"
 viewBox="0.00 0.00 588.00 246.80" xmlns="http://www.w3.org/2000/svg" xmlns:xlink="http://www.w3.org/1999/xlink">
<g id="graph0" class="graph" transform="scale(1 1) rotate(0) translate(4 242.8)">
<title>dependencies</title>
<polygon fill="white" stroke="transparent" points="-4,4 -4,-242.8 584,-242.8 584,4 -4,4"/>
<text text-anchor="middle" x="290" y="-8.2" font-family="sans-serif" font-size="14.00">dependencies</text>
<g id="clust1" class="cluster">
<title>cluster_AppModule</title>
<polygon fill="none" stroke="black" stroke-dasharray="1,5" points="8,-32.8 8,-230.8 572,-230.8 572,-32.8 8,-32.8"/>
</g>
<g id="clust6" class="cluster">
<title>cluster_AppModule_imports</title>
<polygon fill="none" stroke="black" points="420,-40.8 420,-92.8 564,-92.8 564,-40.8 420,-40.8"/>
</g>
<g id="clust8" class="cluster">
<title>cluster_AppModule_bootstrap</title>
<polygon fill="none" stroke="black" points="220,-170.8 220,-222.8 344,-222.8 344,-170.8 220,-170.8"/>
</g>
<g id="clust2" class="cluster">
<title>cluster_AppModule_declarations</title>
<polygon fill="none" stroke="black" points="16,-40.8 16,-92.8 412,-92.8 412,-40.8 16,-40.8"/>
</g>
<!-- AppComponent -->
<g id="node1" class="node">
<title>AppComponent</title>
<polygon fill="#ffffb3" stroke="black" points="403.94,-84.8 298.06,-84.8 298.06,-48.8 403.94,-48.8 403.94,-84.8"/>
<text text-anchor="middle" x="351" y="-62.6" font-family="Times,serif" font-size="14.00">AppComponent</text>
</g>
<!-- AppModule -->
<g id="node4" class="node">
<title>AppModule</title>
<polygon fill="#8dd3c7" stroke="black" points="323.66,-149.8 320.66,-153.8 299.66,-153.8 296.66,-149.8 240.34,-149.8 240.34,-113.8 323.66,-113.8 323.66,-149.8"/>
<text text-anchor="middle" x="282" y="-127.6" font-family="Times,serif" font-size="14.00">AppModule</text>
</g>
<!-- AppComponent&#45;&gt;AppModule -->
<g id="edge1" class="edge">
<title>AppComponent&#45;&gt;AppModule</title>
<path fill="none" stroke="black" d="M311.05,-84.91C311.05,-84.91 311.05,-103.79 311.05,-103.79"/>
<polygon fill="black" stroke="black" points="307.55,-103.79 311.05,-113.79 314.55,-103.79 307.55,-103.79"/>
</g>
<!-- QuestionComponent -->
<g id="node2" class="node">
<title>QuestionComponent</title>
<polygon fill="#ffffb3" stroke="black" points="279.88,-84.8 148.12,-84.8 148.12,-48.8 279.88,-48.8 279.88,-84.8"/>
<text text-anchor="middle" x="214" y="-62.6" font-family="Times,serif" font-size="14.00">QuestionComponent</text>
</g>
<!-- QuestionComponent&#45;&gt;AppModule -->
<g id="edge2" class="edge">
<title>QuestionComponent&#45;&gt;AppModule</title>
<path fill="none" stroke="black" d="M260.06,-84.91C260.06,-84.91 260.06,-103.79 260.06,-103.79"/>
<polygon fill="black" stroke="black" points="256.56,-103.79 260.06,-113.79 263.56,-103.79 256.56,-103.79"/>
</g>
<!-- TipsComponent -->
<g id="node3" class="node">
<title>TipsComponent</title>
<polygon fill="#ffffb3" stroke="black" points="130.22,-84.8 23.78,-84.8 23.78,-48.8 130.22,-48.8 130.22,-84.8"/>
<text text-anchor="middle" x="77" y="-62.6" font-family="Times,serif" font-size="14.00">TipsComponent</text>
</g>
<!-- TipsComponent&#45;&gt;AppModule -->
<g id="edge3" class="edge">
<title>TipsComponent&#45;&gt;AppModule</title>
<path fill="none" stroke="black" d="M77,-84.91C77,-104.14 77,-131.8 77,-131.8 77,-131.8 230.02,-131.8 230.02,-131.8"/>
<polygon fill="black" stroke="black" points="230.02,-135.3 240.02,-131.8 230.02,-128.3 230.02,-135.3"/>
</g>
<!-- AppComponent  -->
<g id="node6" class="node">
<title>AppComponent </title>
<polygon fill="#80b1d3" stroke="black" points="336.44,-214.8 227.56,-214.8 227.56,-178.8 336.44,-178.8 336.44,-214.8"/>
<text text-anchor="middle" x="282" y="-192.6" font-family="Times,serif" font-size="14.00">AppComponent </text>
</g>
<!-- AppModule&#45;&gt;AppComponent  -->
<g id="edge5" class="edge">
<title>AppModule&#45;&gt;AppComponent </title>
<path fill="none" stroke="black" stroke-dasharray="1,5" d="M282,-149.91C282,-149.91 282,-168.79 282,-168.79"/>
<polygon fill="black" stroke="black" points="278.5,-168.79 282,-178.79 285.5,-168.79 278.5,-168.79"/>
</g>
<!-- AppRoutingModule -->
<g id="node5" class="node">
<title>AppRoutingModule</title>
<polygon fill="#8dd3c7" stroke="black" points="556.27,-84.8 553.27,-88.8 532.27,-88.8 529.27,-84.8 427.73,-84.8 427.73,-48.8 556.27,-48.8 556.27,-84.8"/>
<text text-anchor="middle" x="492" y="-62.6" font-family="Times,serif" font-size="14.00">AppRoutingModule</text>
</g>
<!-- AppRoutingModule&#45;&gt;AppModule -->
<g id="edge4" class="edge">
<title>AppRoutingModule&#45;&gt;AppModule</title>
<path fill="none" stroke="black" d="M492,-84.91C492,-104.14 492,-131.8 492,-131.8 492,-131.8 333.74,-131.8 333.74,-131.8"/>
<polygon fill="black" stroke="black" points="333.74,-128.3 323.74,-131.8 333.74,-135.3 333.74,-128.3"/>
</g>
</g>
</svg>
