<?xml version="1.0" encoding="UTF-8" standalone="no"?>
<!DOCTYPE svg PUBLIC "-//W3C//DTD SVG 1.1//EN"
 "http://www.w3.org/Graphics/SVG/1.1/DTD/svg11.dtd">
<!-- Generated by graphviz version 2.47.3 (20210619.1520)
 -->
<!-- Title: dependencies Pages: 1 -->
<svg width="588pt" height="247pt"
 viewBox="0.00 0.00 588.00 246.80" xmlns="http://www.w3.org/2000/svg" xmlns:xlink="http://www.w3.org/1999/xlink">
<g id="graph0" class="graph" transform="scale(1 1) rotate(0) translate(4 242.8)">
<title>dependencies</title>
<polygon fill="white" stroke="transparent" points="-4,4 -4,-242.8 584,-242.8 584,4 -4,4"/>
<text text-anchor="middle" x="290" y="-8.2" font-family="sans-serif" font-size="14.00">dependencies</text>
<g id="clust1" class="cluster">
<title>cluster_AppModule</title>
<polygon fill="none" stroke="black" stroke-dasharray="1,5" points="8,-32.8 8,-230.8 572,-230.8 572,-32.8 8,-32.8"/>
</g>
<g id="clust2" class="cluster">
<title>cluster_AppModule_declarations</title>
<polygon fill="none" stroke="black" points="168,-40.8 168,-92.8 564,-92.8 564,-40.8 168,-40.8"/>
</g>
<g id="clust6" class="cluster">
<title>cluster_AppModule_imports</title>
<polygon fill="none" stroke="black" points="16,-40.8 16,-92.8 160,-92.8 160,-40.8 16,-40.8"/>
</g>
<g id="clust8" class="cluster">
<title>cluster_AppModule_bootstrap</title>
<polygon fill="none" stroke="black" points="235,-170.8 235,-222.8 359,-222.8 359,-170.8 235,-170.8"/>
</g>
<!-- AppComponent -->
<g id="node1" class="node">
<title>AppComponent</title>
<polygon fill="#ffffb3" stroke="black" points="555.94,-84.8 450.06,-84.8 450.06,-48.8 555.94,-48.8 555.94,-84.8"/>
<text text-anchor="middle" x="503" y="-62.6" font-family="Times,serif" font-size="14.00">AppComponent</text>
</g>
<!-- AppModule -->
<g id="node4" class="node">
<title>AppModule</title>
<polygon fill="#8dd3c7" stroke="black" points="338.66,-149.8 335.66,-153.8 314.66,-153.8 311.66,-149.8 255.34,-149.8 255.34,-113.8 338.66,-113.8 338.66,-149.8"/>
<text text-anchor="middle" x="297" y="-127.6" font-family="Times,serif" font-size="14.00">AppModule</text>
</g>
<!-- AppComponent&#45;&gt;AppModule -->
<g id="edge1" class="edge">
<title>AppComponent&#45;&gt;AppModule</title>
<path fill="none" stroke="black" d="M503,-84.91C503,-104.14 503,-131.8 503,-131.8 503,-131.8 348.69,-131.8 348.69,-131.8"/>
<polygon fill="black" stroke="black" points="348.69,-128.3 338.69,-131.8 348.69,-135.3 348.69,-128.3"/>
</g>
<!-- QuestionComponent -->
<g id="node2" class="node">
<title>QuestionComponent</title>
<polygon fill="#ffffb3" stroke="black" points="431.88,-84.8 300.12,-84.8 300.12,-48.8 431.88,-48.8 431.88,-84.8"/>
<text text-anchor="middle" x="366" y="-62.6" font-family="Times,serif" font-size="14.00">QuestionComponent</text>
</g>
<!-- QuestionComponent&#45;&gt;AppModule -->
<g id="edge2" class="edge">
<title>QuestionComponent&#45;&gt;AppModule</title>
<path fill="none" stroke="black" d="M319.44,-84.91C319.44,-84.91 319.44,-103.79 319.44,-103.79"/>
<polygon fill="black" stroke="black" points="315.94,-103.79 319.44,-113.79 322.94,-103.79 315.94,-103.79"/>
</g>
<!-- TipsComponent -->
<g id="node3" class="node">
<title>TipsComponent</title>
<polygon fill="#ffffb3" stroke="black" points="282.22,-84.8 175.78,-84.8 175.78,-48.8 282.22,-48.8 282.22,-84.8"/>
<text text-anchor="middle" x="229" y="-62.6" font-family="Times,serif" font-size="14.00">TipsComponent</text>
</g>
<!-- TipsComponent&#45;&gt;AppModule -->
<g id="edge3" class="edge">
<title>TipsComponent&#45;&gt;AppModule</title>
<path fill="none" stroke="black" d="M268.64,-84.91C268.64,-84.91 268.64,-103.79 268.64,-103.79"/>
<polygon fill="black" stroke="black" points="265.14,-103.79 268.64,-113.79 272.14,-103.79 265.14,-103.79"/>
</g>
<!-- AppComponent  -->
<g id="node6" class="node">
<title>AppComponent </title>
<polygon fill="#80b1d3" stroke="black" points="351.44,-214.8 242.56,-214.8 242.56,-178.8 351.44,-178.8 351.44,-214.8"/>
<text text-anchor="middle" x="297" y="-192.6" font-family="Times,serif" font-size="14.00">AppComponent </text>
</g>
<!-- AppModule&#45;&gt;AppComponent  -->
<g id="edge5" class="edge">
<title>AppModule&#45;&gt;AppComponent </title>
<path fill="none" stroke="black" stroke-dasharray="1,5" d="M297,-149.91C297,-149.91 297,-168.79 297,-168.79"/>
<polygon fill="black" stroke="black" points="293.5,-168.79 297,-178.79 300.5,-168.79 293.5,-168.79"/>
</g>
<!-- AppRoutingModule -->
<g id="node5" class="node">
<title>AppRoutingModule</title>
<polygon fill="#8dd3c7" stroke="black" points="152.27,-84.8 149.27,-88.8 128.27,-88.8 125.27,-84.8 23.73,-84.8 23.73,-48.8 152.27,-48.8 152.27,-84.8"/>
<text text-anchor="middle" x="88" y="-62.6" font-family="Times,serif" font-size="14.00">AppRoutingModule</text>
</g>
<!-- AppRoutingModule&#45;&gt;AppModule -->
<g id="edge4" class="edge">
<title>AppRoutingModule&#45;&gt;AppModule</title>
<path fill="none" stroke="black" d="M88,-84.91C88,-104.14 88,-131.8 88,-131.8 88,-131.8 245.21,-131.8 245.21,-131.8"/>
<polygon fill="black" stroke="black" points="245.21,-135.3 255.21,-131.8 245.21,-128.3 245.21,-135.3"/>
</g>
</g>
</svg>
